<svg width="34" height="34" viewBox="0 0 34 34" fill="none" xmlns="http://www.w3.org/2000/svg">
<path d="M30.3515 17.004C30.3593 16.2878 29.969 15.6298 29.3385 15.2827L14.6484 7.17868C13.9897 6.80609 13.2155 6.8493 12.5985 7.26934C11.9695 7.69718 11.6493 8.72001 11.8278 9.45951L13.2155 15.1991C13.3571 15.7885 13.8848 16.2043 14.4905 16.2036L22.6519 16.2036C23.0705 16.1958 23.4105 16.5358 23.4027 16.9544C23.4034 17.3645 23.0698 17.6981 22.6519 17.7052L14.4834 17.6981C13.877 17.6981 13.35 18.1118 13.207 18.7011L11.8073 24.4556C11.638 25.1349 11.8356 25.8156 12.3173 26.2973C12.374 26.354 12.4377 26.4177 12.5022 26.4666C13.1248 26.949 13.9401 27.012 14.6343 26.6437L29.3244 18.7111C29.9548 18.3781 30.3444 17.7194 30.3515 17.004Z" fill="#006AFF" fill-opacity="0.54"/>
<path opacity="0.4" fill-rule="evenodd" clip-rule="evenodd" d="M7.22631 14.038C7.09031 13.902 7.00602 13.7143 7.00672 13.5067C7.00672 13.0917 7.34247 12.7559 7.75756 12.7559L9.69202 12.7552C10.1064 12.7559 10.4428 13.0924 10.4436 13.5067C10.4428 13.9211 10.1064 14.2576 9.69202 14.2583L7.75756 14.2576C7.55002 14.2583 7.36231 14.174 7.22631 14.038ZM9.04587 17.5468C8.90987 17.4108 8.82558 17.2231 8.82629 17.0155C8.82629 16.6005 9.16204 16.2647 9.57712 16.2647L11.5116 16.264C11.926 16.2647 12.2624 16.6012 12.2631 17.0155C12.2624 17.4299 11.926 17.7664 11.5116 17.7671L9.57712 17.7664C9.36958 17.7671 9.18187 17.6828 9.04587 17.5468ZM6.69824 20.2538C6.69754 20.4614 6.78183 20.6491 6.91783 20.7851C7.05383 20.9211 7.24154 21.0054 7.44908 21.0047L9.38354 21.0054C9.79791 21.0047 10.1344 20.6682 10.1351 20.2538C10.1344 19.8394 9.79791 19.503 9.38354 19.5023L7.44908 19.503C7.03399 19.503 6.69824 19.8387 6.69824 20.2538Z" fill="#006AFF" fill-opacity="0.54"/>
</svg>
