<svg width="14" height="13" viewBox="0 0 14 13" fill="none" xmlns="http://www.w3.org/2000/svg">
<path d="M6.62426 0.761324C6.77796 0.449901 7.22204 0.449901 7.37574 0.761323L8.95976 3.9709C9.02079 4.09457 9.13877 4.18029 9.27524 4.20012L12.8172 4.7148C13.1609 4.76474 13.2981 5.18708 13.0494 5.42949L10.4864 7.9278C10.3877 8.02406 10.3426 8.16275 10.3659 8.29867L10.971 11.8263C11.0297 12.1686 10.6704 12.4297 10.363 12.268L7.19498 10.6025C7.07291 10.5383 6.92709 10.5383 6.80502 10.6025L3.63697 12.268C3.32958 12.4297 2.97031 12.1686 3.02902 11.8263L3.63406 8.29867C3.65738 8.16275 3.61231 8.02406 3.51356 7.9278L0.950557 5.42949C0.701872 5.18708 0.839099 4.76474 1.18277 4.7148L4.72476 4.20012C4.86123 4.18029 4.97921 4.09457 5.04024 3.97091L6.62426 0.761324Z" fill="#006AFF"/>
</svg>
