<svg width="26" height="25" viewBox="0 0 26 25" fill="none" xmlns="http://www.w3.org/2000/svg">
<path d="M11.6549 1.72548C12.2051 0.610607 13.7949 0.61061 14.3451 1.72548L17.0594 7.22521C17.2779 7.66793 17.7002 7.97478 18.1888 8.04577L24.2581 8.92769C25.4884 9.10647 25.9797 10.6184 25.0894 11.4862L20.6976 15.7672C20.3441 16.1118 20.1828 16.6083 20.2662 17.0949L21.303 23.1397C21.5132 24.365 20.227 25.2995 19.1266 24.7209L13.698 21.867C13.261 21.6372 12.739 21.6372 12.302 21.867L6.87343 24.7209C5.77299 25.2995 4.48684 24.365 4.697 23.1397L5.73377 17.0949C5.81722 16.6083 5.6559 16.1118 5.30237 15.7672L0.910578 11.4862C0.0203028 10.6184 0.511566 9.10647 1.7419 8.92769L7.81121 8.04577C8.29977 7.97478 8.72212 7.66792 8.94062 7.22521L11.6549 1.72548Z" fill="#006AFF"/>
</svg>
