<svg width="62" height="54" viewBox="0 0 62 54" fill="none" xmlns="http://www.w3.org/2000/svg">
<rect width="62" height="54" rx="14" fill="#E7F0FF"/>
<path fill-rule="evenodd" clip-rule="evenodd" d="M26.6645 15.671C29.3956 14.0841 32.7525 14.1118 35.458 15.7436C38.1368 17.4086 39.765 20.3802 39.7498 23.5768C39.6874 26.7524 37.9416 29.7375 35.7593 32.0451C34.4998 33.383 33.0908 34.566 31.5611 35.57C31.4035 35.6611 31.2309 35.7221 31.0519 35.75C30.8795 35.7427 30.7116 35.6917 30.5634 35.6018C28.228 34.0932 26.1792 32.1675 24.5154 29.9175C23.1232 28.0392 22.3323 25.77 22.25 23.418C22.2482 20.2153 23.9335 17.2578 26.6645 15.671ZM28.2427 24.7434C28.7021 25.876 29.7865 26.6147 30.9895 26.6147C31.7777 26.6204 32.5353 26.3047 33.0935 25.738C33.6518 25.1713 33.9644 24.4007 33.9616 23.5979C33.9658 22.3725 33.2444 21.2653 32.1341 20.7934C31.0239 20.3215 29.7438 20.5779 28.8917 21.4429C28.0395 22.3079 27.7833 23.6108 28.2427 24.7434Z" fill="#006AFF"/>
<ellipse opacity="0.4" cx="31" cy="38.25" rx="6.25" ry="1.25" fill="#006AFF"/>
</svg>
