<svg width="30" height="30" viewBox="0 0 30 30" fill="none" xmlns="http://www.w3.org/2000/svg">
<path d="M28.3515 15.0041C28.3593 14.2879 27.969 13.6299 27.3385 13.2828L12.6484 5.17877C11.9897 4.80619 11.2155 4.84939 10.5985 5.26944C9.9695 5.69727 9.64934 6.7201 9.82784 7.4596L11.2155 13.1992C11.3571 13.7886 11.8848 14.2044 12.4905 14.2036L20.6519 14.2036C21.0705 14.1959 21.4105 14.5359 21.4027 14.9545C21.4034 15.3646 21.0698 15.6982 20.6519 15.7053L12.4834 15.6982C11.877 15.6982 11.35 16.1119 11.207 16.7012L9.8073 22.4557C9.638 23.135 9.83563 23.8157 10.3173 24.2974C10.374 24.3541 10.4377 24.4178 10.5022 24.4667C11.1248 24.9491 11.9401 25.0121 12.6343 24.6438L27.3244 16.7111C27.9548 16.3782 28.3444 15.7195 28.3515 15.0041Z" fill="#006AFF" fill-opacity="0.54"/>
<path opacity="0.4" fill-rule="evenodd" clip-rule="evenodd" d="M5.22728 12.038C5.09128 11.902 5.00699 11.7143 5.0077 11.5067C5.0077 11.0917 5.34345 10.7559 5.75853 10.7559L7.69299 10.7552C8.10737 10.7559 8.44383 11.0924 8.44453 11.5067C8.44383 11.9211 8.10737 12.2576 7.69299 12.2583L5.75853 12.2576C5.55099 12.2583 5.36328 12.174 5.22728 12.038ZM7.04685 15.5468C6.91085 15.4108 6.82656 15.2231 6.82727 15.0155C6.82727 14.6005 7.16302 14.2647 7.5781 14.2647L9.51256 14.264C9.92693 14.2647 10.2634 14.6012 10.2641 15.0155C10.2634 15.4299 9.92693 15.7664 9.51256 15.7671L7.5781 15.7664C7.37056 15.7671 7.18285 15.6828 7.04685 15.5468ZM4.69922 18.2538C4.69851 18.4614 4.7828 18.6491 4.9188 18.7851C5.0548 18.9211 5.24251 19.0054 5.45005 19.0047L7.38451 19.0054C7.79889 19.0047 8.13535 18.6682 8.13605 18.2538C8.13535 17.8394 7.79889 17.503 7.38451 17.5023L5.45005 17.503C5.03497 17.503 4.69922 17.8387 4.69922 18.2538Z" fill="#006AFF" fill-opacity="0.54"/>
</svg>
