<svg width="34" height="34" viewBox="0 0 34 34" fill="none" xmlns="http://www.w3.org/2000/svg">
<path d="M20.4187 14.7835L18.2372 16.9651L20.3998 19.1276C20.748 19.4759 20.7455 20.0429 20.3943 20.3941C20.043 20.7454 19.476 20.7478 19.1278 20.3996L16.9652 18.237L14.7837 20.4185C14.4224 20.7125 13.8997 20.6878 13.5732 20.3613C13.2467 20.0348 13.222 19.5121 13.516 19.1508L15.6906 16.9761L13.5348 14.8203C13.2439 14.4616 13.2732 13.9387 13.6026 13.6093C13.932 13.2799 14.4549 13.2506 14.8136 13.5415L16.9694 15.6973L19.151 13.5158C19.5122 13.2218 20.0349 13.2465 20.3614 13.5731C20.688 13.8996 20.7127 14.4223 20.4187 14.7835Z" fill="#EB5757"/>
<circle cx="16.9999" cy="17" r="11.25" transform="rotate(-45 16.9999 17)" stroke="#EB5757" stroke-width="1.5"/>
</svg>
