<svg width="30" height="30" viewBox="0 0 30 30" fill="none" xmlns="http://www.w3.org/2000/svg">
<path d="M13.9298 22.3536H5.83911" stroke="#111111" stroke-opacity="0.72" stroke-width="1.5" stroke-linecap="round" stroke-linejoin="round"/>
<path fill-rule="evenodd" clip-rule="evenodd" d="M19.0063 22.3546C19.0063 24.9069 19.8575 25.7569 22.4086 25.7569C24.9597 25.7569 25.8108 24.9069 25.8108 22.3546C25.8108 19.8024 24.9597 18.9524 22.4086 18.9524C19.8575 18.9524 19.0063 19.8024 19.0063 22.3546Z" stroke="#111111" stroke-opacity="0.72" stroke-width="1.5" stroke-linecap="round" stroke-linejoin="round"/>
<path d="M17.7209 9.2428H25.8105" stroke="#111111" stroke-opacity="0.72" stroke-width="1.5" stroke-linecap="round" stroke-linejoin="round"/>
<path fill-rule="evenodd" clip-rule="evenodd" d="M12.6442 9.2411C12.6442 6.68999 11.7931 5.83887 9.24198 5.83887C6.68974 5.83887 5.83862 6.68999 5.83862 9.2411C5.83862 11.7933 6.68974 12.6433 9.24198 12.6433C11.7931 12.6433 12.6442 11.7933 12.6442 9.2411Z" stroke="#111111" stroke-opacity="0.72" stroke-width="1.5" stroke-linecap="round" stroke-linejoin="round"/>
</svg>
