<svg width="62" height="54" viewBox="0 0 62 54" fill="none" xmlns="http://www.w3.org/2000/svg">
<rect width="62" height="54" rx="14" fill="#E7F0FF"/>
<path opacity="0.4" d="M36.0944 14.5H40.3268C42.0797 14.5 43.5 15.9323 43.5 17.7V21.9682C43.5 23.7358 42.0797 25.1681 40.3268 25.1681H36.0944C34.3415 25.1681 32.9212 23.7358 32.9212 21.9682V17.7C32.9212 15.9323 34.3415 14.5 36.0944 14.5Z" fill="#006AFF"/>
<path fill-rule="evenodd" clip-rule="evenodd" d="M21.6732 14.5H25.9056C27.6584 14.5 29.0788 15.9323 29.0788 17.7V21.9682C29.0788 23.7358 27.6584 25.1681 25.9056 25.1681H21.6732C19.9203 25.1681 18.5 23.7358 18.5 21.9682V17.7C18.5 15.9323 19.9203 14.5 21.6732 14.5ZM21.6732 28.8319H25.9056C27.6584 28.8319 29.0788 30.2642 29.0788 32.0318V36.3C29.0788 38.0665 27.6584 39.5 25.9056 39.5H21.6732C19.9203 39.5 18.5 38.0665 18.5 36.3V32.0318C18.5 30.2642 19.9203 28.8319 21.6732 28.8319ZM40.3268 28.8319H36.0944C34.3415 28.8319 32.9212 30.2642 32.9212 32.0318V36.3C32.9212 38.0665 34.3415 39.5 36.0944 39.5H40.3268C42.0797 39.5 43.5 38.0665 43.5 36.3V32.0318C43.5 30.2642 42.0797 28.8319 40.3268 28.8319Z" fill="#006AFF"/>
</svg>
