<svg width="62" height="54" viewBox="0 0 62 54" fill="none" xmlns="http://www.w3.org/2000/svg">
<rect width="62" height="54" rx="14" fill="#E7F0FF"/>
<path fill-rule="evenodd" clip-rule="evenodd" d="M35.0535 16.922C35.0535 19.6982 37.3074 21.9488 40.0877 21.9488C40.3938 21.9473 40.6992 21.9179 41 21.861V31.8268C41 36.0195 38.5269 38.5 34.328 38.5H25.183C20.9731 38.5 18.5 36.0195 18.5 31.8268V22.6951C18.5 18.5024 20.9731 16 25.183 16H35.1414C35.0823 16.3038 35.0529 16.6125 35.0535 16.922ZM32.4375 29.6207L36.0098 25.011V24.989C36.3156 24.5781 36.2376 23.9986 35.8339 23.6829C35.6385 23.5321 35.3903 23.4668 35.1458 23.502C34.9014 23.5371 34.6817 23.6698 34.5369 23.8695L31.5252 27.7439L28.0957 25.0439C27.9 24.8914 27.6509 24.824 27.4048 24.8571C27.1586 24.8901 26.9362 25.0208 26.7877 25.2195L23.0945 29.9829C22.9647 30.1447 22.8948 30.3463 22.8967 30.5537C22.8752 30.9727 23.1398 31.3533 23.5405 31.4798C23.9411 31.6062 24.3767 31.4466 24.6004 31.0915L27.6891 27.0963L31.1185 29.7854C31.3135 29.9426 31.5642 30.0139 31.813 29.9829C32.0618 29.9518 32.2872 29.8211 32.4375 29.6207Z" fill="#006AFF"/>
<circle opacity="0.4" cx="40.375" cy="16.625" r="3.125" fill="#006AFF"/>
</svg>
