<svg width="48" height="48" viewBox="0 0 48 48" fill="none" xmlns="http://www.w3.org/2000/svg">
<rect width="48" height="48" rx="14" fill="#111111" fill-opacity="0.06"/>
<path opacity="0.4" d="M28.3328 34H19.6662C16.2769 34 14 31.6229 14 28.0843V19.9167C14 16.3781 16.2769 14 19.6662 14H28.3338C31.7231 14 34 16.3781 34 19.9167V28.0843C34 31.6229 31.7231 34 28.3328 34Z" fill="#111111" fill-opacity="0.54"/>
<path fill-rule="evenodd" clip-rule="evenodd" d="M23.2434 20.675C23.2434 22.045 22.1284 23.16 20.7584 23.16C19.3874 23.16 18.2734 22.045 18.2734 20.675C18.2734 19.305 19.3874 18.189 20.7584 18.189C22.1284 18.189 23.2434 19.305 23.2434 20.675ZM31.4005 26.0876C31.6335 26.3136 31.8005 26.5716 31.9105 26.8466C32.2435 27.6786 32.0705 28.6786 31.7145 29.5026C31.2925 30.4836 30.4845 31.2246 29.4665 31.5486C29.0145 31.6936 28.5405 31.7556 28.0675 31.7556H19.6865C18.8525 31.7556 18.1145 31.5616 17.5095 31.1976C17.1305 30.9696 17.0635 30.4446 17.3445 30.1026C17.8145 29.5326 18.2785 28.9606 18.7465 28.3836C19.6385 27.2796 20.2395 26.9596 20.9075 27.2406C21.1785 27.3566 21.4505 27.5316 21.7305 27.7156C22.4765 28.2096 23.5135 28.8876 24.8795 28.1516C25.8132 27.641 26.3552 26.7673 26.827 26.0069L26.8365 25.9916C26.8682 25.9407 26.8997 25.8898 26.9311 25.8391C27.0915 25.5799 27.2495 25.3246 27.4285 25.0896C27.6505 24.7986 28.4745 23.8886 29.5395 24.5366C30.2185 24.9446 30.7895 25.4966 31.4005 26.0876Z" fill="#111111" fill-opacity="0.54"/>
</svg>
