<svg width="48" height="48" viewBox="0 0 48 48" fill="none" xmlns="http://www.w3.org/2000/svg">
<rect width="48" height="48" rx="14" fill="#111111" fill-opacity="0.06"/>
<path d="M14.0002 23.0786C14.0502 25.4166 14.1902 29.4156 14.2102 29.8566C14.2812 30.7996 14.6422 31.7526 15.2042 32.4246C15.9862 33.3676 16.9492 33.7886 18.2922 33.7886C20.1482 33.7986 22.1942 33.7986 24.1812 33.7986C26.1762 33.7986 28.1122 33.7986 29.7472 33.7886C31.0712 33.7886 32.0642 33.3566 32.8362 32.4246C33.3982 31.7526 33.7592 30.7896 33.8102 29.8566C33.8302 29.4856 33.9302 25.1446 33.9902 23.0786H14.0002Z" fill="#C1C1C1"/>
<path d="M23.2454 27.3843V28.6783C23.2454 29.0923 23.5814 29.4283 23.9954 29.4283C24.4094 29.4283 24.7454 29.0923 24.7454 28.6783V27.3843C24.7454 26.9703 24.4094 26.6343 23.9954 26.6343C23.5814 26.6343 23.2454 26.9703 23.2454 27.3843Z" fill="#787878"/>
<path fill-rule="evenodd" clip-rule="evenodd" d="M22.2112 26.5565C22.1112 26.9195 21.7622 27.1515 21.3842 27.1015C18.8332 26.7455 16.3952 25.8405 14.3372 24.4815C14.1262 24.3435 14.0002 24.1075 14.0002 23.8555V20.3895C14.0002 18.2895 15.7122 16.5815 17.8172 16.5815H19.7842C19.9722 15.1295 21.2022 14.0005 22.7042 14.0005H25.2862C26.7872 14.0005 28.0182 15.1295 28.2062 16.5815H30.1832C32.2822 16.5815 33.9902 18.2895 33.9902 20.3895V23.8555C33.9902 24.1075 33.8632 24.3425 33.6542 24.4815C31.5922 25.8465 29.1442 26.7555 26.5762 27.1105C26.5412 27.1155 26.5072 27.1175 26.4732 27.1175C26.1342 27.1175 25.8312 26.8885 25.7462 26.5525C25.5442 25.7565 24.8212 25.1995 23.9902 25.1995C23.1482 25.1995 22.4332 25.7445 22.2112 26.5565ZM25.2862 15.5005H22.7042C22.0312 15.5005 21.4692 15.9605 21.3012 16.5815H26.6882C26.5202 15.9605 25.9582 15.5005 25.2862 15.5005Z" fill="#787878"/>
</svg>
