<svg width="48" height="48" viewBox="0 0 48 48" fill="none" xmlns="http://www.w3.org/2000/svg">
<rect width="48" height="48" rx="14" fill="#111111" fill-opacity="0.06"/>
<path opacity="0.4" d="M34 24C34 29.523 29.523 34 24 34C18.477 34 14 29.523 14 24C14 18.478 18.477 14 24 14C29.523 14 34 18.478 34 24Z" fill="#111111" fill-opacity="0.54"/>
<path d="M27.8587 20.7051L26.2387 25.8251C26.1787 26.0351 26.0087 26.2051 25.7987 26.2661L20.6987 27.8651C20.3587 27.9761 20.0287 27.6451 20.1387 27.3051L21.7387 22.1751C21.7987 21.9651 21.9687 21.8051 22.1787 21.7351L27.2987 20.1351C27.6487 20.0251 27.9687 20.3551 27.8587 20.7051Z" fill="#111111" fill-opacity="0.54"/>
</svg>
