<svg width="48" height="48" viewBox="0 0 48 48" fill="none" xmlns="http://www.w3.org/2000/svg">
<rect width="48" height="48" rx="14" fill="#111111" fill-opacity="0.06"/>
<path fill-rule="evenodd" clip-rule="evenodd" d="M33.9996 28.1839C32.5735 28.9018 30.9624 29.3061 29.2568 29.3061C23.4239 29.3061 18.6953 24.5775 18.6953 18.7445C18.6953 17.038 19.1001 15.426 19.8188 13.9993C16.3676 15.7367 14 19.3112 14 23.4386C14 29.2716 18.7286 34.0001 24.5615 34.0001C28.688 34.0001 32.2617 31.6337 33.9996 28.1839Z" fill="#111111" fill-opacity="0.54"/>
<path d="M29.2556 15.2241L30.2903 17.3206L32.6038 17.6567L30.9297 19.2886L31.3249 21.5928L29.2556 20.5049L27.1863 21.5928L27.5815 19.2886L25.9074 17.6567L28.221 17.3206L29.2556 15.2241Z" fill="#111111" fill-opacity="0.54"/>
</svg>
