<svg width="48" height="48" viewBox="0 0 48 48" fill="none" xmlns="http://www.w3.org/2000/svg">
<rect width="48" height="48" rx="14" fill="#111111" fill-opacity="0.06"/>
<path opacity="0.4" d="M24.02 14C18.21 14 14 18.74 14 24C14 25.68 14.49 27.41 15.35 28.99C15.51 29.25 15.53 29.58 15.42 29.89L14.75 32.13C14.6 32.67 15.06 33.07 15.57 32.91L17.59 32.31C18.14 32.13 18.57 32.36 19.081 32.67C20.541 33.53 22.36 33.97 24 33.97C28.96 33.97 34 30.14 34 23.97C34 18.65 29.7 14 24.02 14Z" fill="#111111" fill-opacity="0.54"/>
<path fill-rule="evenodd" clip-rule="evenodd" d="M23.9795 25.2901C23.2695 25.2801 22.6995 24.7101 22.6995 24.0001C22.6995 23.3001 23.2795 22.7201 23.9795 22.7301C24.6895 22.7301 25.2595 23.3001 25.2595 24.0101C25.2595 24.7101 24.6895 25.2901 23.9795 25.2901ZM19.3701 25.2901C18.6701 25.2901 18.0901 24.7101 18.0901 24.0101C18.0901 23.3001 18.6601 22.7301 19.3701 22.7301C20.0801 22.7301 20.6501 23.3001 20.6501 24.0101C20.6501 24.7101 20.0801 25.2801 19.3701 25.2901ZM27.3088 24.0102C27.3088 24.7102 27.8788 25.2902 28.5888 25.2902C29.2988 25.2902 29.8688 24.7102 29.8688 24.0102C29.8688 23.3002 29.2988 22.7302 28.5888 22.7302C27.8788 22.7302 27.3088 23.3002 27.3088 24.0102Z" fill="#111111" fill-opacity="0.54"/>
</svg>
