<svg width="48" height="48" viewBox="0 0 48 48" fill="none" xmlns="http://www.w3.org/2000/svg">
<rect width="48" height="48" rx="14" fill="#111111" fill-opacity="0.06"/>
<path opacity="0.4" d="M28.0737 14H31.4596C32.8619 14 33.9982 15.1459 33.9982 16.56V19.9745C33.9982 21.3886 32.8619 22.5345 31.4596 22.5345H28.0737C26.6714 22.5345 25.5352 21.3886 25.5352 19.9745V16.56C25.5352 15.1459 26.6714 14 28.0737 14Z" fill="#111111" fill-opacity="0.54"/>
<path fill-rule="evenodd" clip-rule="evenodd" d="M16.5385 14H19.9245C21.3268 14 22.463 15.1459 22.463 16.56V19.9745C22.463 21.3886 21.3268 22.5345 19.9245 22.5345H16.5385C15.1363 22.5345 14 21.3886 14 19.9745V16.56C14 15.1459 15.1363 14 16.5385 14ZM16.5385 25.4655H19.9245C21.3268 25.4655 22.463 26.6114 22.463 28.0255V31.44C22.463 32.8532 21.3268 34 19.9245 34H16.5385C15.1363 34 14 32.8532 14 31.44V28.0255C14 26.6114 15.1363 25.4655 16.5385 25.4655ZM31.4596 25.4656H28.0737C26.6714 25.4656 25.5352 26.6114 25.5352 28.0255V31.4401C25.5352 32.8533 26.6714 34.0001 28.0737 34.0001H31.4596C32.8619 34.0001 33.9982 32.8533 33.9982 31.4401V28.0255C33.9982 26.6114 32.8619 25.4656 31.4596 25.4656Z" fill="#111111" fill-opacity="0.54"/>
</svg>
