<svg width="48" height="48" viewBox="0 0 48 48" fill="none" xmlns="http://www.w3.org/2000/svg">
<rect width="48" height="48" rx="14" fill="#E7F0FF"/>
<path opacity="0.4" d="M28.6756 14H19.3333C15.9289 14 14 15.9289 14 19.3333V28.6667C14 32.0711 15.9289 34 19.3333 34H28.6756C32.08 34 34 32.0711 34 28.6667V19.3333C34 15.9289 32.08 14 28.6756 14Z" fill="#006AFF"/>
<path d="M19.3687 21.3689C18.9153 21.3689 18.542 21.7422 18.542 22.2045V29.0756C18.542 29.5289 18.9153 29.9022 19.3687 29.9022C19.8309 29.9022 20.2042 29.5289 20.2042 29.0756V22.2045C20.2042 21.7422 19.8309 21.3689 19.3687 21.3689Z" fill="#006AFF"/>
<path d="M24.0337 18.0889C23.5804 18.0889 23.207 18.4622 23.207 18.9244V29.0755C23.207 29.5289 23.5804 29.9022 24.0337 29.9022C24.4959 29.9022 24.8693 29.5289 24.8693 29.0755V18.9244C24.8693 18.4622 24.4959 18.0889 24.0337 18.0889Z" fill="#006AFF"/>
<path d="M28.64 24.9956C28.1778 24.9956 27.8044 25.3689 27.8044 25.8312V29.0756C27.8044 29.5289 28.1778 29.9023 28.6311 29.9023C29.0933 29.9023 29.4667 29.5289 29.4667 29.0756V25.8312C29.4667 25.3689 29.0933 24.9956 28.64 24.9956Z" fill="#006AFF"/>
</svg>
